<svg width="512" height="512" viewBox="0 0 512 512" fill="none" xmlns="http://www.w3.org/2000/svg" xmlns:xlink="http://www.w3.org/1999/xlink" class=""><rect id="r9" width="512" height="512" x="0" y="0" rx="0" fill="url(#ra)" stroke="#FFFFFF" stroke-width="0" stroke-opacity="100%" paint-order="stroke"></rect><clipPath id="clip"><use xlink:href="#r9"></use></clipPath><defs><radialGradient id="ra" cx="50%" cy="50%" r="100%" fx="50%" fy="50%" gradientUnits="objectBoundingBox"><stop stop-color="#374151"></stop><stop offset="1" stop-color="#000000"></stop></radialGradient><radialGradient id="rb" cx="0" cy="0" r="1" gradientUnits="userSpaceOnUse" gradientTransform="translate(256) rotate(90) scale(512)"><stop stop-color="white"></stop><stop offset="1" stop-color="white" stop-opacity="0"></stop></radialGradient></defs><svg width="480" height="480" viewBox="0 0 512 512" fill="none" xmlns="http://www.w3.org/2000/svg" x="16" y="16" alignment-baseline="middle" style="color: rgb(230, 230, 230);">
<path d="M352 321L459 262L352 203" stroke="white" stroke-width="24" stroke-linecap="round" stroke-linejoin="round"></path>
<path d="M163 203L54 262L163 321" stroke="white" stroke-width="24" stroke-linecap="round" stroke-linejoin="round"></path>
<path d="M267.001 118.691C269.329 113.627 274.469 116.186 274.469 122.41V230.407H315.876C319.225 230.407 321.172 236.29 319.226 240.525L248.999 393.309C246.67 398.373 241.531 395.814 241.531 389.59V281.592H200.124C196.776 281.592 194.828 275.711 196.774 271.475L267.001 118.691Z" fill="#FFBE1A"></path>
</svg>
</svg>